<svg width="1776" height="2011" viewBox="0 0 1776 2011" fill="none" xmlns="http://www.w3.org/2000/svg">
<path d="M1776 0.899902H0L166.5 1806.4L887.9 2011L1609.3 1806.4L1776 0.899902Z" fill="#E6A329"/>
<path d="M887.9 148V1858L1472.4 1692.4L1614.6 148H887.9Z" fill="#F1BF22"/>
<path d="M1352.9 369.5H454.2L391.6 1045.5L392.9 1041.3H1156.4L1131.5 1327.3L887.9 1397.4L640.7 1326.2L625.9 1153.1H401.5L433.5 1499L887.9 1628L1342.5 1499L1405.1 820.1H594.8L605.2 593.9H1167.4L1175.8 723.5H1402.2L1352.9 369.5Z" fill="white"/>
<path d="M888.1 369.5H454.2L391.6 1045.5L392.9 1041.3H888.1V820.8H626.4L636.8 594.6H888.1V369.5ZM626.4 1153.1H401.5L433.5 1498.8L887.9 1627.6V1397.6L640.7 1326.2L626.4 1153.1Z" fill="#EBEBEB"/>
</svg>
