<svg width="439" height="436" viewBox="0 0 439 436" fill="none" xmlns="http://www.w3.org/2000/svg">
<path fill-rule="evenodd" clip-rule="evenodd" d="M428.73 323.212L426.769 328.297C393.346 393.387 334.116 433.319 249.635 435.08C210.142 435.895 172.513 425.761 147.931 414.743C94.8831 390.908 50.2618 346.706 25.8946 299.479C-9.06081 231.779 -15.3649 137.603 57.3173 67.2632C58.4396 67.2632 48.5004 82.5159 49.6227 82.5159L47.6221 89.0249C-4.75238 252.999 156.611 393.523 313.471 377.451C351.169 373.586 399.24 352.942 428.73 323.212Z" fill="#21609B"/>
<path fill-rule="evenodd" clip-rule="evenodd" d="M333.808 255.409C373.272 255.678 414.493 237.234 438.904 211.339C417.547 265.548 355.712 300.392 272.793 289.311C203.36 280.021 137.221 210.154 130.409 140.145C125.428 89.1956 143.183 58.7877 172.445 21.9001C162.276 41.1929 158.475 56.07 157.529 65.5602C146.414 175.774 245.571 254.829 333.808 255.409" fill="#21609B"/>
<path fill-rule="evenodd" clip-rule="evenodd" d="M434.937 118.515C428.804 132.587 393.482 159.16 377.883 162.483C316.116 175.642 276.559 146.352 255.837 113.021C252.758 108.044 247.064 94.4507 246.044 90.9913C238.008 63.6671 241.702 22.3394 265.674 0.948486C258.452 21.2903 257.398 44.916 261.199 60.276C263.502 69.5613 270.519 85.7753 277.54 95.9731C290.314 114.549 298.419 119.062 314.828 128.928C322.22 133.368 330.149 136.93 333.574 137.906C349.134 142.488 381.987 154.554 434.942 118.515" fill="#21609B"/>
</svg>
