<svg width="661" height="712" viewBox="0 0 661 712" fill="none" xmlns="http://www.w3.org/2000/svg">
<path fill-rule="evenodd" clip-rule="evenodd" d="M128.623 0.861816L0.0922852 144.943L183.407 353.977L0.0922852 567.044L128.623 711.138H332.222L207.077 567.044L391.079 358.698L203.017 144.943L332.222 0.861816H128.623ZM492.541 176.745L653.548 9.65534H446.551L390.197 69.8869L492.541 176.745V176.745Z" fill="#6D2221"/>
<path d="M328.85 6.2832L492.541 176.745L653.548 9.65537H446.55L390.197 68.8882" stroke="#0C0E0F" stroke-width="9.02696" stroke-miterlimit="2.613" stroke-linecap="round" stroke-linejoin="round"/>
<path fill-rule="evenodd" clip-rule="evenodd" d="M491.192 526.462L656.246 703.719H440.455L384.075 639.273L491.192 526.462V526.462Z" fill="#6D2221"/>
<path d="M323.442 703.719L491.192 526.462L656.246 703.719H440.455L387.071 642.865" stroke="#0C0E0F" stroke-width="9.02696" stroke-miterlimit="2.613" stroke-linecap="round" stroke-linejoin="round"/>
</svg>
