<svg width="24" height="24" viewBox="0 0 24 24" fill="none" xmlns="http://www.w3.org/2000/svg">
<g clip-path="url(#clip0)">
<path d="M8.01442 11.9707C8.01442 14.7995 6.72468 17.0926 4.33212 17.0926C1.93956 17.0926 0 14.7995 0 11.9707C0 9.14192 1.93956 6.84875 4.33212 6.84875C6.72468 6.84875 8.01442 9.14192 8.01442 11.9707Z" fill="#FFAD00" fill-opacity="0.5"/>
<path d="M7.36447 11.7145C7.36447 13.2704 6.2977 14.5316 4.98178 14.5316C3.66587 14.5316 2.59912 13.2704 2.59912 11.7145C2.59912 10.1587 3.66587 8.89746 4.98178 8.89746C6.2977 8.89746 7.36447 10.1587 7.36447 11.7145Z" fill="#FFAD00"/>
<path d="M4.82935 22.3609V1.58044H12.8196C14.5366 1.58044 16.0489 1.85362 17.3562 2.39996C18.6635 2.9463 19.7562 3.68776 20.6342 4.62435C21.5123 5.56093 22.1757 6.66337 22.6245 7.93166C23.0733 9.18043 23.2976 10.517 23.2976 11.9414C23.2976 13.5219 23.044 14.9561 22.5367 16.2439C22.0489 17.5122 21.3464 18.6048 20.4293 19.5219C19.5123 20.4194 18.4098 21.1219 17.122 21.6292C15.8342 22.117 14.4001 22.3609 12.8196 22.3609H4.82935ZM17.5025 11.9414C17.5025 11.1414 17.3952 10.4097 17.1806 9.7463C16.9659 9.0829 16.6537 8.51703 16.244 8.04874C15.8537 7.58044 15.3659 7.21947 14.7806 6.96581C14.1952 6.69264 13.5415 6.55605 12.8196 6.55605H10.5367V17.3853H12.8196C13.5611 17.3853 14.2245 17.2488 14.8098 16.9756C15.3952 16.7024 15.883 16.3219 16.2732 15.8341C16.683 15.3463 16.9855 14.7707 17.1806 14.1073C17.3952 13.4439 17.5025 12.7219 17.5025 11.9414Z" fill="white"/>
</g>
<defs>
<clipPath id="clip0">
<rect width="24" height="20.7805" fill="white" transform="translate(0 1.58044)"/>
</clipPath>
</defs>
</svg>
