<svg width="24" height="25" viewBox="0 0 24 25" fill="none" xmlns="http://www.w3.org/2000/svg">
<path fill-rule="evenodd" clip-rule="evenodd" d="M2.41675 12.0445C2.41675 13.9345 3.94196 15.4666 5.82341 15.4666V8.61816C4.91919 8.61816 4.05207 8.97928 3.41308 9.62196C2.77408 10.2646 2.41565 11.1361 2.41675 12.0445V12.0445Z" fill="white"/>
<path fill-rule="evenodd" clip-rule="evenodd" d="M12.7465 0.0574614C16.7544 -0.00479728 19.1901 2.15973 20.4606 5.27681C21.3944 7.57208 21.6299 9.98771 21.5968 12.4552C21.5658 14.7256 21.2312 16.9462 20.2932 19.0214C19.3698 21.0718 18.0125 22.7279 15.8578 23.5373C15.0938 23.8347 14.2862 24.0037 13.4675 24.0374H5.82373V15.4706C7.70632 15.4706 9.23245 13.9375 9.23245 12.0464C9.23245 10.1553 7.70632 8.62217 5.82373 8.62217V0.0574614H12.7465ZM15.0192 19.0777C15.6575 18.2705 15.9426 17.3138 16.1224 16.3259C16.5707 13.8729 16.5521 11.4033 16.3 8.93374C16.1988 7.81101 15.9902 6.70696 15.4737 5.68799C15.0295 4.81222 14.3622 4.17303 13.3582 4.1253C12.6944 4.09374 12.3439 4.09937 11.8811 4.10682C11.6439 4.11063 11.3773 4.11492 11.0237 4.11492V20.0116H13.1929C13.9148 20.0094 14.5926 19.6627 15.0192 19.0777Z" fill="white"/>
</svg>
