<svg width="24" height="24" viewBox="0 0 24 24" fill="none" xmlns="http://www.w3.org/2000/svg">
<path fill-rule="evenodd" clip-rule="evenodd" d="M23.9164 10.9065H19.6442C20.2048 8.79695 20.7118 7.00806 20.7118 7.00806C20.7118 7.00806 18.7894 9.06402 17.0805 10.9065H0.151863C0.0454075 10.9065 0.0454075 10.96 0.151863 10.96C0.205403 10.96 16.7599 11.2535 16.7599 11.2535C15.4249 12.6686 14.7039 13.4698 14.6778 13.4966C14.6243 13.5501 14.6778 13.5769 14.7307 13.5233C14.7575 13.4966 15.7193 12.615 17.0805 11.2535L19.19 11.2803C19.0562 11.8944 18.95 12.455 18.7894 13.1227C16.1996 14.5113 11.9809 16.7808 11.9809 16.7808C11.9274 16.8076 11.9541 16.8611 12.0077 16.8344C12.0345 16.8076 15.9593 14.8316 18.7091 13.443C18.2556 15.499 17.962 16.9137 17.962 16.9405C17.9353 16.9673 17.9888 16.994 18.0156 16.9405C18.0156 16.9137 18.4156 15.499 19.0036 13.3092C21.4595 12.0547 23.9164 10.9065 23.9164 10.9065ZM17.4276 10.9065C18.7091 9.6514 19.7774 8.63664 19.7774 8.63664C19.7774 8.63664 19.5906 9.51786 19.2703 10.9065H17.4276ZM19.5374 11.2806L22.1004 11.3338C22.1004 11.3338 20.8189 12.028 19.0833 12.9624C19.2436 12.375 19.3768 11.868 19.5374 11.2806Z" fill="white"/>
</svg>
