<svg width="24" height="24" viewBox="0 0 24 24" fill="none" xmlns="http://www.w3.org/2000/svg">
<path d="M7.26247 0.392337C6.63247 0.551712 5.31997 1.69734 4.68622 2.64046L4.57184 2.81109L4.48184 2.75671C4.43309 2.72671 4.32622 2.67796 4.24372 2.64984C4.11059 2.60296 4.06747 2.59734 3.84997 2.59734C3.57247 2.59734 3.44309 2.62359 3.23309 2.73046C2.95747 2.86734 2.75872 3.07359 2.61997 3.36421C2.47184 3.67359 2.45309 4.01671 2.56372 4.34671C2.59559 4.44234 2.62184 4.52296 2.62184 4.52484C2.62184 4.52859 2.56559 4.56609 2.49434 4.60734C2.08747 4.84921 1.37684 5.46046 0.954968 5.93296C0.103718 6.88359 -0.156907 7.61109 0.413093 7.45359C0.626843 7.39359 0.966218 7.20046 1.29997 6.94921C1.90184 6.49359 2.60497 5.76609 2.97622 5.21484L3.08872 5.04609L3.25372 5.12859C3.57247 5.28421 3.82372 5.30296 4.26247 5.19796C4.29247 5.19234 4.35997 5.24296 4.53434 5.40234C5.88809 6.62859 7.15747 8.19234 8.04622 9.72796L8.16809 9.93984L8.04997 10.1817C7.68059 10.943 7.54559 11.843 7.68434 12.6455C7.74434 13.0017 7.82122 13.2717 7.96184 13.6223L7.99934 13.718L7.87372 13.9786C7.50809 14.7323 6.91184 15.623 6.10934 16.6205C5.59184 17.2617 4.95059 17.9873 4.40684 18.548L4.22872 18.7298L4.06747 18.6998C3.76747 18.6436 3.41872 18.698 3.18434 18.8367C3.17872 18.8405 3.14684 18.7955 3.11309 18.7392C2.85059 18.3023 1.98997 17.4586 1.30934 16.973C0.823718 16.628 0.324968 16.3992 0.133718 16.4348C-0.166282 16.4911 0.0493427 16.9842 0.671843 17.6742C1.17059 18.2255 1.98059 18.8817 2.53184 19.178L2.71184 19.2736L2.64809 19.4198C2.55059 19.643 2.52247 19.8023 2.53184 20.0573C2.53934 20.2298 2.55059 20.3048 2.58997 20.4136C2.71934 20.7755 2.95934 21.0436 3.29122 21.1973C3.47497 21.2836 3.64747 21.3211 3.85934 21.3211C4.09372 21.3211 4.24372 21.2892 4.41247 21.2048L4.54934 21.1355L4.64122 21.2592C4.90184 21.6173 5.53372 22.2586 5.95934 22.5998C6.56872 23.0873 7.14434 23.3986 7.43872 23.3986C7.49872 23.3986 7.52872 23.3873 7.56622 23.3498C7.60934 23.3067 7.61309 23.2917 7.60372 23.1998C7.54934 22.6711 6.32497 21.4111 5.18684 20.7098C5.10622 20.6592 5.04059 20.6123 5.04059 20.6048C5.04059 20.5955 5.05747 20.5505 5.07809 20.5036C5.16809 20.2936 5.19247 20.0067 5.14372 19.7348L5.11747 19.5848L5.28059 19.4067C5.54497 19.1123 6.32122 18.3436 6.63809 18.0586C7.63934 17.1623 8.76809 16.3355 9.72247 15.7973L9.87809 15.7111L10.0731 15.803C10.4312 15.9755 10.8118 16.088 11.2468 16.1536C11.5075 16.193 12.0737 16.1986 12.3343 16.1648C12.7581 16.1086 13.1875 15.9848 13.555 15.8105L13.7706 15.7092L14.0143 15.8442C14.8825 16.3298 15.9793 17.1567 17.1156 18.1861C17.47 18.5067 18.1468 19.148 18.4075 19.4105L18.64 19.6448L18.6193 19.7536C18.5912 19.8886 18.5912 20.1605 18.6175 20.2898C18.6287 20.3442 18.6643 20.4455 18.6943 20.5167C18.7262 20.5861 18.7487 20.6461 18.745 20.6498C18.7412 20.6517 18.6493 20.7155 18.5406 20.7886C18.2725 20.9723 17.9987 21.203 17.6968 21.5048C17.0556 22.1461 16.5756 22.7836 16.4012 23.2205C16.3393 23.3761 16.3393 23.5373 16.4012 23.588C16.6862 23.8205 17.98 22.8323 18.8462 21.7205C18.9681 21.5648 19.225 21.188 19.24 21.143C19.2437 21.1317 19.2662 21.1373 19.2925 21.1561C19.3787 21.2123 19.6375 21.2948 19.7893 21.3155C20.3143 21.3886 20.8618 21.0942 21.1168 20.6048C21.2931 20.2692 21.3156 19.9073 21.1843 19.5173C21.1562 19.4292 21.1393 19.3561 21.1468 19.3523C21.1562 19.3486 21.25 19.2886 21.3568 19.2173C22.3937 18.5292 23.635 17.0573 23.6481 16.5023C23.65 16.418 23.6425 16.3955 23.605 16.3655C23.2843 16.1048 21.8293 17.2711 20.9612 18.4842C20.8768 18.6023 20.7868 18.7355 20.7606 18.7805C20.7343 18.8236 20.7062 18.8611 20.6987 18.8611C20.6912 18.8611 20.6312 18.8311 20.5618 18.7955C20.3012 18.6567 19.9318 18.6136 19.6562 18.6905L19.5268 18.7261L19.345 18.5592C19.1068 18.3398 18.5687 17.7867 18.295 17.4811C17.2937 16.3636 16.4631 15.1955 15.8443 14.0348L15.6737 13.718L15.7131 13.6223C15.7975 13.4161 15.9193 13.0111 15.9625 12.7973C16.1256 11.9873 16.0487 11.1548 15.7375 10.3786L15.6512 10.163L15.7206 10.0355C16.1087 9.33046 16.5793 8.65921 17.2562 7.84546C17.8281 7.15734 18.6118 6.31546 19.3037 5.64421L19.735 5.22609L20.0425 5.22234C20.3912 5.21859 20.5075 5.19046 20.7231 5.05921C20.8318 4.99171 20.8393 4.98984 20.8656 5.02171C20.8806 5.04046 20.9481 5.12671 21.0156 5.21296C21.2781 5.55234 21.865 6.10359 22.3806 6.49359C22.9581 6.93046 23.5487 7.23609 23.815 7.23609C23.9068 7.23609 23.9762 7.20046 23.9893 7.14796C24.0156 7.05046 23.86 6.77484 23.5918 6.43921C23.395 6.19546 22.8025 5.59359 22.5568 5.39296C22.1368 5.04609 21.6493 4.70484 21.3793 4.56609L21.2462 4.49859L21.295 4.36359C21.3381 4.23984 21.3418 4.19859 21.3418 3.94546C21.3418 3.69046 21.3362 3.64921 21.2912 3.51421C21.1543 3.10359 20.8431 2.79234 20.425 2.64984C20.29 2.60296 20.2487 2.59734 20.0218 2.59734C19.7968 2.59734 19.75 2.60296 19.6093 2.64984C19.3675 2.72671 19.3806 2.72671 19.3337 2.65546C19.2362 2.50171 18.9625 2.18109 18.7187 1.93734C18.0681 1.28671 17.17 0.654837 16.66 0.495462C15.7825 0.217962 16.27 1.20796 17.5375 2.27671C17.9425 2.61796 18.5781 3.06796 18.8087 3.17859L18.8762 3.21046L18.82 3.31921C18.6812 3.59484 18.6418 3.96984 18.7168 4.28109L18.7543 4.42921L18.2668 4.90921C18.0006 5.17359 17.6593 5.49796 17.5093 5.63109C16.4312 6.58921 15.2481 7.43296 14.0425 8.10609L13.7162 8.28796L13.4987 8.19609C12.9568 7.96546 12.5087 7.86234 11.9593 7.84359C11.44 7.82484 10.9993 7.88859 10.4856 8.05734L10.2137 8.14734L9.86309 7.96734C8.59934 7.32046 7.06184 6.14296 5.32559 4.49671L5.11559 4.29609L5.14559 4.16859C5.18872 3.98484 5.17184 3.71109 5.10622 3.52359C5.07997 3.44671 5.05372 3.36984 5.04809 3.35296C5.04059 3.33234 5.07247 3.30234 5.16622 3.24796C5.49059 3.05484 6.05122 2.59171 6.46934 2.16984C7.45934 1.17421 7.87934 0.234837 7.26247 0.392337ZM20.1625 3.67359C20.2712 3.72609 20.3293 3.83296 20.3181 3.96234C20.3087 4.07671 20.2675 4.14234 20.17 4.19671C19.9825 4.30359 19.7331 4.15734 19.7368 3.94546C19.7387 3.80859 19.81 3.70921 19.9412 3.66234C20.0387 3.62859 20.0725 3.63046 20.1625 3.67359ZM4.01497 3.69984C4.04872 3.71296 4.09934 3.75046 4.12934 3.78234C4.28497 3.94921 4.12934 4.23609 3.88184 4.23609C3.73559 4.23609 3.61184 4.10859 3.60997 3.95671C3.60622 3.75046 3.81809 3.61546 4.01497 3.69984ZM4.05622 19.7817C4.13684 19.8286 4.19684 19.9448 4.19684 20.0498C4.19684 20.123 4.18559 20.1473 4.13122 20.2092C4.04684 20.303 3.97747 20.3311 3.85747 20.3198C3.64934 20.2992 3.54434 20.0761 3.65122 19.8792C3.67747 19.8305 3.77872 19.7498 3.83122 19.7367C3.88934 19.7236 3.99434 19.7442 4.05622 19.7817ZM20.1062 19.8173C20.2 19.8755 20.2543 19.9955 20.2375 20.1023C20.2187 20.2092 20.0931 20.333 19.9881 20.3517C19.8493 20.3742 19.7162 20.2973 19.6675 20.168C19.6337 20.078 19.6412 19.9223 19.6843 19.8698C19.7743 19.7536 19.9656 19.7311 20.1062 19.8173Z" fill="black"/>
<g clip-path="url(#clip0)">
<path d="M9.62255 5.27957C9.55469 5.28167 9.4816 5.30674 9.39872 5.37215C9.19572 5.29384 8.99884 5.26664 8.82275 5.42605C8.55099 5.39079 8.46255 5.46357 8.3956 5.54851C8.33592 5.54728 7.94899 5.48716 7.77157 5.75183C7.32567 5.69908 7.18476 6.01411 7.34443 6.30789C7.25336 6.44887 7.159 6.58815 7.37196 6.85691C7.29663 7.0066 7.34333 7.16899 7.52079 7.36551C7.47396 7.57593 7.56602 7.7244 7.73114 7.84011C7.70026 8.12807 7.99521 8.2955 8.08329 8.35515C8.11711 8.52294 8.1876 8.68127 8.5245 8.76883C8.58006 9.01888 8.78254 9.06206 8.97861 9.11453C8.33057 9.49121 7.77484 9.98683 7.77861 11.2028L7.68368 11.3721C6.9406 11.8241 6.27208 13.2765 7.31747 14.4571C7.38576 14.8266 7.50028 15.0921 7.60224 15.3858C7.75475 16.5695 8.75007 17.1238 9.01259 17.1893C9.39727 17.4824 9.80699 17.7604 10.3614 17.9552C10.8841 18.4942 11.4503 18.6997 12.0196 18.6993C12.028 18.6993 12.0365 18.6994 12.0448 18.6993C12.6141 18.6997 13.1804 18.4942 13.703 17.9552C14.2574 17.7604 14.6672 17.4824 15.0518 17.1893C15.3144 17.1238 16.3097 16.5695 16.4622 15.3858C16.5642 15.0921 16.6787 14.8266 16.747 14.4571C17.7924 13.2765 17.1238 11.8241 16.3808 11.3721L16.2858 11.2028C16.2896 9.98683 15.7339 9.49121 15.0858 9.11453C15.2819 9.06206 15.4844 9.01888 15.5399 8.76883C15.8768 8.68127 15.9473 8.52294 15.9811 8.35515C16.0692 8.2955 16.3642 8.12807 16.3333 7.84011C16.4984 7.7244 16.5905 7.57593 16.5436 7.36551C16.7211 7.16899 16.7678 7.0066 16.6925 6.85691C16.9054 6.58815 16.8111 6.44887 16.72 6.30789C16.8797 6.01411 16.7388 5.69908 16.2929 5.75183C16.1154 5.48716 15.7285 5.54728 15.6688 5.54851C15.6019 5.46357 15.5135 5.39079 15.2417 5.42605C15.0656 5.26664 14.8687 5.29384 14.6657 5.37215C14.4246 5.18188 14.265 5.3344 14.0827 5.39207C13.7907 5.29667 13.724 5.42733 13.5806 5.48054C13.2623 5.41327 13.1655 5.55974 13.0128 5.71433L12.8352 5.71082C12.355 5.99381 12.1165 6.57005 12.0319 6.86629C11.9473 6.57 11.7093 5.99376 11.2292 5.71082L11.0517 5.71433C10.8989 5.55974 10.8022 5.41327 10.4839 5.48054C10.3405 5.42733 10.2737 5.29667 9.98173 5.39207C9.86211 5.35422 9.7521 5.27555 9.62255 5.27957Z" fill="black"/>
<path d="M8.66669 6.52473C9.9407 7.18157 10.6813 7.7129 11.0871 8.16544C10.8793 8.99827 9.79526 9.03628 9.3989 9.01291C9.48006 8.97514 9.54778 8.92989 9.57179 8.86037C9.47233 8.78968 9.11967 8.85292 8.87347 8.7146C8.96805 8.69501 9.01229 8.67592 9.05653 8.60613C8.82392 8.53194 8.57337 8.46801 8.42601 8.3451C8.50553 8.34609 8.57978 8.36289 8.68364 8.29087C8.4753 8.17859 8.25297 8.08961 8.08024 7.91798C8.18796 7.91534 8.3041 7.91691 8.33787 7.8773C8.14718 7.75916 7.98629 7.62778 7.85312 7.48407C8.00387 7.50227 8.06753 7.4866 8.10397 7.46034C7.95982 7.3127 7.77739 7.18803 7.6904 7.0061C7.80233 7.04467 7.90474 7.05944 7.97854 7.00271C7.92956 6.8922 7.71969 6.82703 7.59888 6.5688C7.71671 6.58023 7.84168 6.59451 7.86668 6.5688C7.81188 6.34589 7.71804 6.22061 7.626 6.09082C7.87818 6.08708 8.26026 6.09181 8.24295 6.07048L8.08702 5.91116C8.33335 5.84484 8.58541 5.92181 8.76839 5.97896C8.85055 5.91413 8.76693 5.83215 8.66669 5.74844C8.87603 5.77639 9.0652 5.82452 9.23619 5.89082C9.32755 5.80833 9.17687 5.72585 9.10398 5.64336C9.42741 5.70472 9.56443 5.79093 9.7006 5.87726C9.7994 5.78256 9.70626 5.70207 9.63959 5.61963C9.88344 5.70995 10.009 5.82655 10.1413 5.94167C10.1861 5.88116 10.2552 5.83681 10.1718 5.69082C10.3449 5.79062 10.4753 5.90822 10.5718 6.03998C10.6789 5.97176 10.6356 5.87848 10.6362 5.79251C10.8161 5.93889 10.9303 6.09465 11.0701 6.24676C11.0983 6.22626 11.1229 6.15673 11.1447 6.04676C11.574 6.46323 12.1806 7.51222 11.3006 7.92815C10.5522 7.31039 9.65783 6.86151 8.66669 6.52473Z" fill="#75A928"/>
<path d="M15.4267 6.52473C14.1526 7.18157 13.412 7.7129 13.0063 8.16544C13.2141 8.99827 14.2981 9.03628 14.6944 9.01291C14.6133 8.97514 14.5456 8.92989 14.5215 8.86037C14.621 8.78968 14.9737 8.85292 15.2199 8.7146C15.1253 8.69501 15.0811 8.67592 15.0368 8.60613C15.2694 8.53194 15.52 8.46801 15.6673 8.3451C15.5878 8.34609 15.5136 8.36289 15.4097 8.29087C15.618 8.17859 15.8404 8.08961 16.0131 7.91798C15.9054 7.91534 15.7892 7.91691 15.7555 7.8773C15.9462 7.75916 16.1071 7.62778 16.2402 7.48407C16.0895 7.50227 16.0258 7.4866 15.9894 7.46034C16.1335 7.3127 16.316 7.18803 16.4029 7.0061C16.291 7.04467 16.1886 7.05944 16.1148 7.00271C16.1638 6.8922 16.3737 6.82703 16.4945 6.5688C16.3766 6.58023 16.2517 6.59451 16.2267 6.5688C16.2815 6.34589 16.3753 6.22061 16.4673 6.09082C16.2152 6.08708 15.8331 6.09181 15.8504 6.07048L16.0063 5.91116C15.76 5.84484 15.5079 5.92181 15.325 5.97896C15.2428 5.91413 15.3264 5.83215 15.4267 5.74844C15.2173 5.77639 15.0281 5.82452 14.8571 5.89082C14.7658 5.80833 14.9165 5.72585 14.9894 5.64336C14.6659 5.70472 14.5289 5.79093 14.3927 5.87726C14.2939 5.78256 14.3871 5.70207 14.4538 5.61963C14.2099 5.70995 14.0843 5.82655 13.952 5.94167C13.9072 5.88116 13.8381 5.83681 13.9215 5.69082C13.7484 5.79062 13.618 5.90822 13.5215 6.03998C13.4144 5.97176 13.4577 5.87848 13.4571 5.79251C13.2772 5.93889 13.163 6.09465 13.0232 6.24676C12.9951 6.22626 12.9704 6.15673 12.9486 6.04676C12.5193 6.46323 11.9128 7.51222 12.7927 7.92815C13.5412 7.31039 14.4355 6.86151 15.4267 6.52473V6.52473Z" fill="#75A928"/>
<path d="M13.5896 15.0053C13.5896 15.3786 13.4288 15.7365 13.1426 16.0004C12.8564 16.2643 12.4683 16.4125 12.0635 16.4125C11.6588 16.4125 11.2706 16.2643 10.9844 16.0004C10.6983 15.7365 10.5375 15.3786 10.5375 15.0053C10.5375 14.6321 10.6983 14.2742 10.9844 14.0103C11.2706 13.7464 11.6588 13.5981 12.0635 13.5981C12.4683 13.5981 12.8564 13.7464 13.1426 14.0103C13.4288 14.2742 13.5896 14.6321 13.5896 15.0053V15.0053Z" fill="#BC1142"/>
<path d="M11.1804 10.9853C11.484 11.1843 11.6814 11.517 11.7292 11.9103C11.7769 12.3037 11.6711 12.7254 11.435 13.0827C11.1988 13.4401 10.8517 13.7037 10.4701 13.8157C10.0884 13.9277 9.70335 13.8789 9.39969 13.6799C9.09604 13.481 8.89862 13.1482 8.85088 12.7549C8.80313 12.3616 8.90896 11.9398 9.14509 11.5825C9.38122 11.2252 9.72831 10.9615 10.11 10.8495C10.4917 10.7375 10.8767 10.7864 11.1804 10.9853V10.9853Z" fill="#BC1142"/>
<path d="M12.8872 10.9104C12.5835 11.1093 12.3861 11.442 12.3384 11.8354C12.2906 12.2287 12.3964 12.6505 12.6326 13.0078C12.8687 13.3651 13.2158 13.6288 13.5975 13.7408C13.9792 13.8528 14.3642 13.8039 14.6678 13.605C14.9715 13.406 15.1689 13.0733 15.2166 12.6799C15.2644 12.2866 15.1585 11.8649 14.9224 11.5075C14.6863 11.1502 14.3392 10.8866 13.9575 10.7746C13.5758 10.6626 13.1908 10.7114 12.8872 10.9104V10.9104Z" fill="#BC1142"/>
<path d="M8.02008 11.6628C8.70284 11.4799 8.25054 14.4873 7.69508 14.2405C7.08407 13.749 6.88727 12.3097 8.02008 11.6628Z" fill="#BC1142"/>
<path d="M15.9095 11.6253C15.2267 11.4424 15.6791 14.4498 16.2345 14.203C16.8456 13.7115 17.0424 12.2722 15.9095 11.6253Z" fill="#BC1142"/>
<path d="M13.59 9.38589C14.7682 9.18695 15.7484 9.88692 15.709 11.1645C15.6702 11.6542 13.156 9.4588 13.59 9.38589V9.38589Z" fill="#BC1142"/>
<path d="M10.3349 9.34841C9.15669 9.14947 8.17641 9.84946 8.21587 11.127C8.25463 11.6168 10.7689 9.42133 10.3349 9.34841Z" fill="#BC1142"/>
<path d="M12.0271 9.05038C11.324 9.03209 10.6491 9.57227 10.6475 9.88559C10.6455 10.2663 11.2034 10.6561 12.0319 10.666C12.878 10.672 13.4179 10.354 13.4206 9.96108C13.4237 9.51596 12.6511 9.0435 12.0271 9.05038V9.05038Z" fill="#BC1142"/>
<path d="M12.0702 16.857C12.6833 16.8303 13.5059 17.0545 13.5075 17.352C13.5177 17.6408 12.7614 18.2934 12.0295 18.2808C11.2715 18.3135 10.5282 17.6599 10.5379 17.4333C10.5266 17.1011 11.4609 16.8418 12.0702 16.857Z" fill="#BC1142"/>
<path d="M9.80572 15.0944C10.2422 15.6203 10.4412 16.5441 10.0769 16.8164C9.73231 17.0243 8.89543 16.9387 8.30061 16.0842C7.89945 15.3672 7.95116 14.6376 8.23281 14.4232C8.65402 14.1666 9.30481 14.5132 9.80572 15.0944Z" fill="#BC1142"/>
<path d="M14.2472 14.9276C13.775 15.4808 13.512 16.4897 13.8565 16.8147C14.1859 17.0671 15.0702 17.0318 15.7234 16.1255C16.1977 15.5168 16.0388 14.5002 15.7679 14.2303C15.3654 13.919 14.7877 14.3174 14.2472 14.9276V14.9276Z" fill="#BC1142"/>
</g>
<defs>
<clipPath id="clip0">
<rect width="10.6875" height="13.5" fill="white" transform="translate(6.65308 5.24866)"/>
</clipPath>
</defs>
</svg>
