<svg width="746" height="572" viewBox="0 0 746 572" fill="none" xmlns="http://www.w3.org/2000/svg">
<g filter="url(#filter0_d)">
<path d="M539.782 321.324L560.754 266.272C563.746 258.418 557.945 250 549.54 250H491.343C498.793 233.764 502.953 215.703 502.953 196.667C502.953 193.036 502.793 189.443 502.497 185.889C542.036 178.074 566.953 166.684 566.953 154C566.953 140.737 539.722 128.888 497.006 121.063C487.821 88.2579 469.828 55.2658 456.292 38.2128C446.84 26.3048 430.419 22.5788 416.821 29.3788L389.264 43.1578C384.821 45.3798 379.921 46.5366 374.953 46.5366C369.985 46.5366 365.085 45.3798 360.642 43.1578L333.085 29.3778C319.486 22.5788 303.065 26.3038 293.614 38.2118C280.078 55.2648 262.085 88.2568 252.9 121.062C210.184 128.888 182.953 140.737 182.953 154C182.953 166.684 207.87 178.074 247.409 185.889C247.107 189.474 246.955 193.069 246.953 196.667C246.953 215.704 251.112 233.765 258.561 250H201.151C192.536 250 186.728 258.808 190.122 266.727L213.028 320.174C176.752 333.882 150.953 368.925 150.953 410V490C150.953 516.51 172.443 538 198.953 538H550.953C577.463 538 598.953 516.51 598.953 490V410C598.953 370.03 574.523 335.769 539.782 321.324ZM334.953 514L286.953 322L334.953 346L358.953 386L334.953 514ZM414.953 514L390.953 386L414.953 346L462.953 322L414.953 514ZM469.731 210.254C469.723 210.297 465.432 213.485 464.606 216.025C460.745 227.889 457.58 240.597 448.092 249.384C438.021 258.711 400.135 271.789 384.096 224.355C381.259 215.96 368.649 215.957 365.811 224.355C348.848 274.523 309.792 256.772 301.815 249.384C292.327 240.598 289.162 227.889 285.301 216.025C284.475 213.485 280.183 210.297 280.176 210.254C279.622 207.329 279.195 204.37 278.956 201.404C278.647 197.556 289.034 197.746 290.034 197.657C316.337 195.331 342.337 197.078 368.057 203.154C370.62 203.76 379.61 203.683 381.85 203.154C407.57 197.078 433.57 195.33 459.873 197.657C460.875 197.746 471.26 197.555 470.951 201.404C470.712 204.37 470.285 207.329 469.731 210.254Z" fill="#EB2532"/>
</g>
<g filter="url(#filter1_d)">
<path d="M654.212 154C614.302 154 588.453 170.351 568.158 199.513C564.477 204.803 565.612 212.056 570.747 215.95L592.316 232.304C597.503 236.237 604.882 235.317 608.943 230.23C621.467 214.54 630.758 205.506 650.321 205.506C665.703 205.506 684.729 215.406 684.729 230.322C684.729 241.598 675.421 247.389 660.233 255.904C642.521 265.834 619.083 278.192 619.083 309.106V314C619.083 320.628 624.456 326 631.083 326H667.319C673.946 326 679.319 320.628 679.319 314V311.113C679.319 289.684 741.953 288.791 741.953 230.8C741.953 187.128 696.652 154 654.212 154ZM649.201 340.73C630.103 340.73 614.566 356.267 614.566 375.365C614.566 394.463 630.103 410 649.201 410C668.299 410 683.837 394.462 683.837 375.365C683.837 356.267 668.299 340.73 649.201 340.73Z" fill="#F4E023"/>
</g>
<g filter="url(#filter2_d)">
<path d="M92.2119 154C52.3024 154 26.4529 170.351 6.15839 199.513C2.47689 204.803 3.61189 212.056 8.74739 215.95L30.3164 232.304C35.5029 236.237 42.8824 235.317 46.9429 230.23C59.4674 214.54 68.7579 205.506 88.3214 205.506C103.703 205.506 122.729 215.406 122.729 230.322C122.729 241.598 113.421 247.389 98.2329 255.904C80.5214 265.834 57.0834 278.192 57.0834 309.106V314C57.0834 320.628 62.4559 326 69.0834 326H105.319C111.946 326 117.319 320.628 117.319 314V311.113C117.319 289.684 179.953 288.791 179.953 230.8C179.953 187.128 134.652 154 92.2119 154ZM87.2014 340.73C68.1034 340.73 52.5659 356.267 52.5659 375.365C52.5659 394.463 68.1034 410 87.2014 410C106.299 410 121.837 394.462 121.837 375.365C121.837 356.267 106.299 340.73 87.2014 340.73Z" fill="#F4E023"/>
</g>
<defs>
<filter id="filter0_d" x="120.953" y="0" width="508" height="572" filterUnits="userSpaceOnUse" color-interpolation-filters="sRGB">
<feFlood flood-opacity="0" result="BackgroundImageFix"/>
<feColorMatrix in="SourceAlpha" type="matrix" values="0 0 0 0 0 0 0 0 0 0 0 0 0 0 0 0 0 0 127 0"/>
<feOffset dy="4"/>
<feGaussianBlur stdDeviation="15"/>
<feColorMatrix type="matrix" values="0 0 0 0 0 0 0 0 0 0 0 0 0 0 0 0 0 0 1 0"/>
<feBlend mode="normal" in2="BackgroundImageFix" result="effect1_dropShadow"/>
<feBlend mode="normal" in="SourceGraphic" in2="effect1_dropShadow" result="shape"/>
</filter>
<filter id="filter1_d" x="562" y="154" width="183.953" height="264" filterUnits="userSpaceOnUse" color-interpolation-filters="sRGB">
<feFlood flood-opacity="0" result="BackgroundImageFix"/>
<feColorMatrix in="SourceAlpha" type="matrix" values="0 0 0 0 0 0 0 0 0 0 0 0 0 0 0 0 0 0 127 0"/>
<feOffset dy="4"/>
<feGaussianBlur stdDeviation="2"/>
<feColorMatrix type="matrix" values="0 0 0 0 0 0 0 0 0 0 0 0 0 0 0 0 0 0 0.25 0"/>
<feBlend mode="normal" in2="BackgroundImageFix" result="effect1_dropShadow"/>
<feBlend mode="normal" in="SourceGraphic" in2="effect1_dropShadow" result="shape"/>
</filter>
<filter id="filter2_d" x="0" y="154" width="183.953" height="264" filterUnits="userSpaceOnUse" color-interpolation-filters="sRGB">
<feFlood flood-opacity="0" result="BackgroundImageFix"/>
<feColorMatrix in="SourceAlpha" type="matrix" values="0 0 0 0 0 0 0 0 0 0 0 0 0 0 0 0 0 0 127 0"/>
<feOffset dy="4"/>
<feGaussianBlur stdDeviation="2"/>
<feColorMatrix type="matrix" values="0 0 0 0 0 0 0 0 0 0 0 0 0 0 0 0 0 0 0.25 0"/>
<feBlend mode="normal" in2="BackgroundImageFix" result="effect1_dropShadow"/>
<feBlend mode="normal" in="SourceGraphic" in2="effect1_dropShadow" result="shape"/>
</filter>
</defs>
</svg>
