<svg width="24" height="24" viewBox="0 0 24 24" fill="none" xmlns="http://www.w3.org/2000/svg">
<path d="M17.3656 13.1364L18.0403 11.3653C18.1365 11.1126 17.9499 10.8418 17.6795 10.8418H15.8072C16.0469 10.3195 16.1807 9.73842 16.1807 9.126C16.1807 9.00919 16.1756 8.8936 16.166 8.77926C17.4381 8.52784 18.2397 8.1614 18.2397 7.75334C18.2397 7.32665 17.3636 6.94545 15.9894 6.6937C15.6939 5.63831 15.115 4.5769 14.6796 4.02828C14.3755 3.64518 13.8472 3.52531 13.4097 3.74408L12.5232 4.18737C12.3802 4.25886 12.2226 4.29607 12.0628 4.29607C11.9029 4.29607 11.7453 4.25886 11.6023 4.18737L10.7158 3.74405C10.2783 3.52531 9.75001 3.64515 9.44595 4.02825C9.01048 4.57687 8.43162 5.63828 8.13612 6.69367C6.76188 6.94545 5.88581 7.32665 5.88581 7.75334C5.88581 8.1614 6.68743 8.52784 7.95947 8.77926C7.94975 8.89459 7.94486 9.01025 7.9448 9.126C7.9448 9.73846 8.0786 10.3195 8.31824 10.8418H6.47127C6.19411 10.8418 6.00726 11.1252 6.11645 11.3799L6.85337 13.0994C5.68632 13.5404 4.85632 14.6678 4.85632 15.9893V18.563C4.85632 19.4159 5.54769 20.1072 6.40056 20.1072H17.725C18.5778 20.1072 19.2692 19.4159 19.2692 18.563V15.9893C19.2692 14.7034 18.4832 13.6011 17.3656 13.1364ZM10.7759 19.3351L9.23166 13.1582L10.7759 13.9303L11.548 15.2171L10.7759 19.3351ZM13.3496 19.3351L12.5775 15.2171L13.3496 13.9303L14.8939 13.1582L13.3496 19.3351ZM15.1119 9.56312C15.1117 9.5645 14.9736 9.66707 14.947 9.74878C14.8228 10.1305 14.721 10.5393 14.4158 10.822C14.0918 11.1221 12.8729 11.5428 12.3569 10.0168C12.2656 9.74669 11.8599 9.74659 11.7686 10.0168C11.2229 11.6308 9.96642 11.0597 9.70979 10.822C9.40455 10.5393 9.30273 10.1305 9.17851 9.74878C9.15194 9.66707 9.01386 9.5645 9.01363 9.56312C8.99581 9.46902 8.98207 9.37382 8.97438 9.2784C8.96444 9.15461 9.29861 9.16072 9.33078 9.15785C10.177 9.08302 11.0134 9.13923 11.8409 9.3347C11.9234 9.3542 12.2126 9.35172 12.2846 9.3347C13.1121 9.13923 13.9486 9.08299 14.7948 9.15785C14.827 9.16072 15.1611 9.15457 15.1512 9.2784C15.1435 9.37382 15.1297 9.46902 15.1119 9.56312Z" fill="#EB2532"/>
<path d="M21.047 7.75342C19.7631 7.75342 18.9315 8.27946 18.2785 9.21765C18.1601 9.38783 18.1966 9.62117 18.3618 9.74645L19.0557 10.2726C19.2226 10.3991 19.46 10.3695 19.5907 10.2059C19.9936 9.70109 20.2925 9.41045 20.9219 9.41045C21.4167 9.41045 22.0288 9.72895 22.0288 10.2088C22.0288 10.5716 21.7294 10.7579 21.2407 11.0318C20.6709 11.3513 19.9169 11.7489 19.9169 12.7434V12.9009C19.9169 13.1141 20.0897 13.2869 20.3029 13.2869H21.4687C21.6819 13.2869 21.8548 13.1141 21.8548 12.9009V12.808C21.8548 12.1186 23.8698 12.0899 23.8698 10.2242C23.8698 8.8192 22.4124 7.75342 21.047 7.75342ZM20.8858 13.7608C20.2714 13.7608 19.7716 14.2607 19.7716 14.8751C19.7716 15.4895 20.2714 15.9894 20.8858 15.9894C21.5002 15.9894 22.0001 15.4895 22.0001 14.8751C22.0001 14.2607 21.5002 13.7608 20.8858 13.7608Z" fill="#F4E023"/>
<path d="M2.96658 7.75342C1.68263 7.75342 0.851007 8.27946 0.198101 9.21765C0.0796611 9.38783 0.116176 9.62117 0.281393 9.74645L0.975302 10.2726C1.14216 10.3991 1.37957 10.3695 1.5102 10.2059C1.91314 9.70109 2.21203 9.41045 2.84141 9.41045C3.33627 9.41045 3.94836 9.72895 3.94836 10.2088C3.94836 10.5716 3.64891 10.7579 3.16028 11.0318C2.59048 11.3513 1.83644 11.7489 1.83644 12.7434V12.9009C1.83644 13.1141 2.00928 13.2869 2.2225 13.2869H3.38825C3.60146 13.2869 3.77431 13.1141 3.77431 12.9009V12.808C3.77431 12.1186 5.78935 12.0899 5.78935 10.2242C5.78935 8.8192 4.33194 7.75342 2.96658 7.75342ZM2.80538 13.7608C2.19097 13.7608 1.6911 14.2607 1.6911 14.8751C1.6911 15.4895 2.19097 15.9894 2.80538 15.9894C3.41978 15.9894 3.91966 15.4895 3.91966 14.8751C3.91966 14.2607 3.41978 13.7608 2.80538 13.7608Z" fill="#F4E023"/>
</svg>
