<svg width="24" height="24" viewBox="0 0 24 24" fill="none" xmlns="http://www.w3.org/2000/svg">
<path d="M5.63604 18.364C7.99158 20.7195 11.328 21.4964 14.3306 20.6946V9.66943H3.30544C2.50361 12.672 3.28047 16.0084 5.63604 18.364Z" fill="#2B1212"/>
<path d="M5.6359 5.63599C4.47674 6.79515 3.69988 8.19186 3.3053 9.66937L14.3304 20.6945C15.808 20.3 17.2046 19.5231 18.3638 18.3639V15.2142L8.78559 5.63599H5.6359Z" fill="#FF5C00"/>
<path d="M5.65414 5.61799L5.63611 5.63602L18.364 18.3639C19.5232 17.2048 20.3 15.8081 20.6946 14.3306V12.3214L11.6786 3.30542H9.66946C8.19957 3.69793 6.80972 4.46877 5.65414 5.61799Z" fill="white"/>
<path d="M20.6945 14.3306L9.66931 3.30545C12.6665 2.50505 15.9963 3.27769 18.3512 5.62332C18.3554 5.62756 18.3596 5.63176 18.3639 5.636C18.3681 5.64025 18.3724 5.64449 18.3766 5.64874C20.7223 8.00361 21.4949 11.3335 20.6945 14.3306Z" fill="#63BEFF"/>
</svg>
