<svg width="24" height="24" viewBox="0 0 24 24" fill="none" xmlns="http://www.w3.org/2000/svg">
<g clip-path="url(#clip0)">
<path d="M19.2985 1.06675V8.20437L18.5756 8.20088L21.4567 15.8975L23.9271 15.9008V23.0441H0.117554V15.9103L2.57041 15.9131L5.47708 8.19456L4.7386 8.19647L4.74151 1.06409L19.2986 1.06642L19.2985 1.06675Z" fill="white"/>
<path d="M12.0228 3.7131H16.6211V5.55229H14.7108L19.7332 18.4975H21.2187V20.402H14.9934V18.5491H13.246V22.1823H23.0712V16.7647L20.8649 16.7685L17.3281 7.33946H18.4389V1.92517H12.0222H5.60553V7.33946H6.71657L3.17948 16.7566L0.973145 16.7648V22.1824H10.7993V18.5491H9.05133V20.402H2.8261V18.4976H4.31157L9.33395 5.55233H7.42395V3.71314H12.0223L12.0228 3.7131Z" fill="#00205C"/>
<path d="M12.0179 3.72974L17.1174 16.9535C17.1174 16.9535 17.7707 18.5629 18.8319 18.5629H15.1188C15.1188 18.5629 15.3053 18.59 15.4912 18.2802C15.5975 18.1034 15.5078 17.8379 15.5078 17.8379L14.3595 14.8859H12.0176H9.68536L8.53555 17.8379C8.53555 17.8379 8.44785 18.1034 8.55391 18.2802C8.73894 18.59 8.92485 18.5629 8.92485 18.5629H5.21204C6.27266 18.5629 6.92685 16.9535 6.92685 16.9535L12.0183 3.72974H12.0179ZM12.0142 13.484H13.8106L12.0494 8.84521L10.226 13.484H12.0142V13.484Z" fill="#C10230"/>
</g>
<defs>
<clipPath id="clip0">
<rect width="24" height="22.1705" fill="white" transform="translate(0 0.952393)"/>
</clipPath>
</defs>
</svg>
