<svg width="13" height="16" viewBox="0 0 13 16" fill="none" xmlns="http://www.w3.org/2000/svg">
<path fill-rule="evenodd" clip-rule="evenodd" d="M1.67414e-06 7.99839C1.67414e-06 9.25937 1.0176 10.2816 2.27288 10.2816V5.7124C1.6696 5.7124 1.09106 5.95333 0.664737 6.38212C0.23841 6.81091 -0.000730021 7.39236 1.67414e-06 7.99839V7.99839Z" fill="white"/>
<path fill-rule="evenodd" clip-rule="evenodd" d="M6.8917 0.000873361C9.56568 -0.0406648 11.1907 1.40348 12.0384 3.48316C12.6614 5.01453 12.8186 6.62621 12.7965 8.27251C12.7758 9.78727 12.5525 11.2688 11.9268 12.6534C11.3107 14.0214 10.4051 15.1263 8.96748 15.6663C8.45775 15.8648 7.91895 15.9775 7.37274 16H2.27289V10.2843C3.52893 10.2843 4.54715 9.26149 4.54715 7.99974C4.54715 6.73799 3.52893 5.71514 2.27289 5.71514V0.000873361H6.8917ZM8.40781 12.6909C8.83372 12.1523 9.02393 11.5139 9.14384 10.8549C9.44294 9.21827 9.43054 7.57059 9.26238 5.9229C9.19484 5.17383 9.05563 4.43722 8.71105 3.75738C8.4147 3.17307 7.9695 2.74662 7.29963 2.71477C6.85674 2.69371 6.62292 2.69747 6.31414 2.70244C6.15589 2.70499 5.97796 2.70785 5.74211 2.70785V13.3139H7.18936C7.67097 13.3124 8.12322 13.0812 8.40781 12.6909Z" fill="white"/>
</svg>
