<svg width="410" height="355" viewBox="0 0 410 355" fill="none" xmlns="http://www.w3.org/2000/svg">
<path d="M136.913 177.5C136.913 225.825 114.88 265 74.007 265C33.1341 265 0 225.825 0 177.5C0 129.175 33.1341 90 74.007 90C114.88 90 136.913 129.175 136.913 177.5Z" fill="#FFAD00" fill-opacity="0.5"/>
<path d="M125.81 173.125C125.81 199.704 107.586 221.25 85.1057 221.25C62.6256 221.25 44.4019 199.704 44.4019 173.125C44.4019 146.546 62.6256 125 85.1057 125C107.586 125 125.81 146.546 125.81 173.125Z" fill="#FFAD00"/>
<path d="M82.5 355V-1.90735e-05H219C248.333 -1.90735e-05 274.167 4.66665 296.5 14C318.833 23.3333 337.5 36 352.5 52C367.5 68 378.833 86.8333 386.5 108.5C394.167 129.833 398 152.667 398 177C398 204 393.667 228.5 385 250.5C376.667 272.167 364.667 290.833 349 306.5C333.333 321.833 314.5 333.833 292.5 342.5C270.5 350.833 246 355 219 355H82.5ZM299 177C299 163.333 297.167 150.833 293.5 139.5C289.833 128.167 284.5 118.5 277.5 110.5C270.833 102.5 262.5 96.3333 252.5 92C242.5 87.3333 231.333 85 219 85H180V270H219C231.667 270 243 267.667 253 263C263 258.333 271.333 251.833 278 243.5C285 235.167 290.167 225.333 293.5 214C297.167 202.667 299 190.333 299 177Z" fill="white"/>
</svg>
