<svg width="1946" height="1736" viewBox="0 0 1946 1736" fill="none" xmlns="http://www.w3.org/2000/svg">
<path d="M581.275 1544.99C507.198 1486.72 428.16 1430.87 374.163 1352.19C260.495 1213.42 173 1052.8 113.184 883.98C77.019 774.194 64.6348 656.498 17.9852 550.974C-30.7462 474.306 26.3806 390.558 110.35 366.199C147.708 358.997 213.435 323.729 134.093 348.968C62.9481 401.133 56.095 301.559 129.033 295.253C178.812 288.65 197.138 247.919 180.096 211.253C126.639 176.38 309.674 138.118 217.568 86.0967C121.686 -17.3834 351.743 -37.3045 294.973 80.2389C281.404 170.613 455.785 63.638 415.289 168.022C456.431 218.159 569.309 179.457 566.475 249.75C626.39 253.868 646.957 304.248 703.142 308.123C761.469 334.456 867.099 355.168 886.914 420.849C829.096 466.61 695.248 326.312 688.782 453.003C706.272 640.194 701.812 833.015 770.275 1011.26C802.656 1119.18 881.201 1204.13 952.094 1288.2C1019.96 1370.51 1111.87 1428.5 1205.57 1477.28C1287.74 1516.03 1376.33 1541.71 1465.91 1557.86C1502.23 1530.08 1566.36 1426.8 1622.99 1470.32C1625.73 1519.32 1510.58 1572.67 1617.59 1567.25C1680.48 1548.27 1724.05 1615.83 1775.82 1554.88C1823.52 1611.37 1974.04 1518.81 1940.12 1634.27C1894.21 1663.89 1827.29 1645.99 1781.34 1686.74C1705.58 1648.88 1645.25 1720.57 1561.34 1711.53C1468.2 1728.22 1373.39 1734.93 1278.96 1735.07C1124 1722.84 965.77 1717.69 818.36 1663.73C735.295 1639.6 654.266 1592.29 581.275 1544.99ZM712.137 1601.73C793.22 1636.76 872.516 1673.72 961.394 1684.89C1102.39 1704.47 1248 1734.67 1389.49 1707.16C1325.46 1678.25 1259.23 1718.38 1195.44 1686.49C1118.93 1702.93 1036.82 1682.27 959.001 1672.08C870.564 1632.69 775.092 1605.61 692.27 1554.43C588.729 1516.63 745.78 1602.92 773.747 1609.94C838.433 1646.63 702.595 1591.09 683.411 1575.85C629.224 1545.44 622.326 1551.8 678.062 1582.65C689.284 1589.22 700.369 1596.12 712.137 1601.73ZM557.829 1492.68C636.427 1521.8 557.48 1437.43 521.512 1442.31C505.557 1414.63 460.556 1397.14 492.299 1382.29C435.218 1402.12 432.483 1306.92 405.663 1320.54C345.247 1301.46 382.156 1233.89 310.168 1192.37C303.604 1148.64 238.674 1110.73 218.009 1044.8C208.869 1011.02 144.631 914.097 184.078 1004.3C217.659 1091.15 276.731 1165.58 325.918 1239.85C364.074 1310.59 409.189 1384.57 478.692 1428.69C502.146 1451.2 524.741 1485.62 557.821 1492.68H557.829ZM331.487 1244.12C345.847 1269.8 334.207 1232.25 331.487 1244.12ZM651.979 1527.55C626.937 1517.72 669.363 1519.76 651.979 1527.55ZM694.602 1543.11C675.129 1555.13 690.188 1521.64 694.602 1543.11ZM748.014 1565.38C708.81 1550.1 773.397 1541.16 748.014 1565.38ZM839.527 1616.38C790.089 1607.79 854.973 1593.58 839.527 1616.38ZM663.809 1493.88C612.783 1493.52 703.241 1468.34 663.809 1493.88ZM703.848 1513.85C689.588 1519.9 702.701 1500.38 703.848 1513.85ZM904.009 1638.79C936.2 1659.12 1091.96 1683.31 994.436 1647.13C978.078 1650.57 813.589 1600.58 904.009 1638.79ZM586.252 1391.28C536.259 1376.33 583.122 1377.78 586.252 1391.28ZM679.399 1445.64C629.072 1432.58 703.689 1428.7 679.399 1445.64ZM757.792 1493.68C701.364 1480.52 792.619 1480.57 757.792 1493.68ZM548.294 1350C586.054 1378.95 700.627 1353.72 606.12 1332.71C563.147 1309.81 466.27 1294.12 532.309 1346.53L548.294 1350ZM810.915 1510.27C744.929 1494.96 826.657 1483.49 810.915 1510.27ZM731.116 1446.87C823.428 1472.96 653.468 1388.44 708.324 1437.23L720.503 1442.75L731.116 1446.87ZM891.108 1539.33C812.107 1527.27 978.542 1540.17 891.108 1539.33ZM514.667 1299.41C493.105 1300.76 511.233 1283.12 514.667 1299.41ZM1039 1622.3C1010.48 1644.21 1041.34 1592.89 1039 1622.3ZM663.908 1390.78C636.586 1390.14 658.589 1375.28 663.908 1390.78ZM522.956 1289.19C454.197 1267.08 573.146 1286.16 522.956 1289.19ZM355.975 1181.27C301.378 1138.01 349.722 1157.18 355.975 1181.27ZM794.321 1459.45C789.991 1461.73 785.128 1448.96 794.321 1459.45ZM1067.12 1626.88C1052.26 1632.93 1066.28 1610.82 1067.12 1626.88ZM770.176 1434.51C727.356 1428.24 775.099 1413.84 770.176 1434.51ZM566.923 1305.68C507.054 1280.44 604.289 1301.7 566.923 1305.68ZM910.733 1519.32C853.993 1508.08 968.953 1496.26 910.733 1519.32ZM731.922 1397.95C798.986 1406.58 652.086 1352.28 717.167 1393.07L731.922 1397.95ZM965.018 1541.27C1027.68 1503.86 1007.01 1628.96 1071.3 1551.85C1134.69 1505.55 1016.55 1609.08 1094.65 1560.1C1151.18 1522.29 1234.64 1578.03 1287.36 1596.17C1325.26 1594.33 1362.13 1628.96 1401.02 1607.88C1475.85 1587.71 1254.67 1577.99 1312.64 1542.26C1244.19 1562.19 1193.62 1518.51 1159.93 1474.64C1083.12 1456.9 994.337 1417.66 955.984 1349.65C940.333 1324.17 978.549 1353.28 942.476 1311.55C896.221 1270.4 873.124 1223.65 842.065 1173.63C804.95 1153.85 800.582 1095.57 796.851 1171.7C797.155 1123.65 752.04 1091.3 741.009 1104.72C740.811 1058.46 789.307 1081.66 755.368 1047.44C748.074 999.487 724.02 949.517 716.81 895.361C705.596 869.278 715.215 813.39 678.465 872.454C665.093 934.907 674.043 795.748 694.86 841.608C722.182 794.806 685.014 800.314 683.525 806.78C701.318 767.287 694.807 711.239 678.86 732.604C688.349 690.718 693.865 578.493 664.705 598.414C682.385 554.599 698.241 397.988 621.422 457.721C590.324 458.161 536.426 469.003 510.99 481.669C590.826 525.689 502.936 497.563 470.395 490.558C466.171 531.297 433.98 513.708 393.735 514.103C458.026 522.05 362.433 579.823 325.629 557.379C277.734 580.233 366.915 637.367 326.572 655.047C331.548 681.631 253.239 645.421 259.355 706.924C212.895 687.337 252.996 779.854 276.245 748.559C355.291 769.969 331.89 818.708 333.873 865.054C321.003 892.026 270.281 801.613 322.59 805.792C281.305 738.758 276.944 781.541 242.656 812.691C234.708 814.932 330.097 857 270.235 877.772C322.894 885.925 324.437 932.027 335.172 961.195C366.816 994.169 360.298 924.764 398.218 964.424C374.209 929.095 271.223 864.894 354.151 885.484C353.695 849.957 339.138 821.284 364.575 821.975C389.769 776.42 338.196 934.36 394.935 876.435C410.624 869.582 414.56 830.827 442.778 880.112C483.76 920.456 457.586 949.654 399.752 912.699C410.085 947.823 477.104 960.336 464.484 1015.24C477.841 1063.54 496.531 1045.74 512.821 1042.96C525.585 1089.86 532.856 1055.38 533.448 1033.02C591.92 1045.56 578.206 1080.13 596.532 1104.27C636.822 1122.45 538.858 981.009 608.019 1061.74C680.79 1127.47 635.34 1154.89 570.016 1144.37C611.347 1141.02 624.65 1200.26 676.383 1198.17C723.526 1220.62 755.475 1306.77 674.195 1270.9C646.023 1245.46 546.205 1214.11 627.743 1262.46C702.959 1297.33 762.776 1318.15 835.356 1361.93C887.279 1398.99 909.722 1441.45 929.4 1449.86C885.736 1470.72 797.854 1433.21 863.126 1421.74C822.387 1414.33 776.588 1393.72 815.58 1444.44C848.766 1472.17 933.077 1469.23 948.235 1472.36C935.417 1500.58 913.415 1502.82 948.729 1505C909.327 1526.02 961.401 1529.3 965.026 1541.27H965.018ZM884.437 1313.68C860.444 1288.59 854.237 1241.65 880.167 1282.47C893.486 1287.84 922.752 1359.24 884.437 1313.68ZM1146.91 1480.41C1147.35 1491.78 1161.87 1479.42 1146.91 1480.41ZM846.593 1252.18C855.224 1281.43 845.636 1214.27 846.593 1252.18ZM820.503 1217.1C858.506 1233.59 790.302 1158.83 820.503 1217.1ZM504.326 998.902C513.071 1029.19 522.067 994.169 504.326 998.902ZM755.968 1135.27C768.74 1169.56 766.848 1094.38 755.968 1135.27ZM578.206 1011.66C604.395 1032.83 565.693 989.109 578.206 1011.66ZM730.729 1060.55C702.162 996.562 751 1025.57 737.088 1071.03L730.729 1060.55ZM467.668 885.119C454.904 864.112 433.782 802.502 440.59 783.683C446.698 814.332 505.724 915.533 469.499 825.615C429.512 750.246 517.349 850.049 526.39 868.883C530.614 887.566 501.698 863.77 521.269 907.631C485.553 857.699 500.201 935.211 467.668 885.119ZM386.388 829.087C404.972 862.569 389.716 780.249 386.388 829.087ZM422.955 841.699C452.51 893.074 440.392 804.85 422.955 841.699ZM334.967 773.647C304.706 743.529 282.794 715.813 336.403 754.956C357.023 755.754 290.506 691.919 341.379 734.686C394.829 744.434 367.751 822.386 334.967 773.647ZM381.168 772.454C390.513 789.594 398.765 755.017 381.168 772.454ZM409.637 781.54C441.98 802.51 382.954 731.609 409.637 781.54ZM353.103 727.544C265.122 649.182 463.641 768.473 367.462 742.04L353.103 727.544ZM605.231 873.996C567.129 851.188 595.096 713.283 608.118 807.578C645.134 795.596 606.067 856.317 633.646 855.716C629.331 894.009 616.962 907.791 605.231 873.996ZM698.485 929.14C706.333 957.571 702.207 887.566 698.485 929.14ZM682.294 913.094C682.689 934.01 686.465 895.361 682.294 913.094ZM370.334 701.803C313.808 623.798 534.633 780.69 406.56 721.58C393.188 718.054 377.05 716.808 370.334 701.803ZM549.935 797.002C561.863 807.866 544.579 731.32 549.935 797.002ZM686.26 884.474C687.065 909.227 696.79 847.07 686.26 884.474ZM379.033 672.043C412.623 664.841 518.238 731.016 421.261 690.923C410.488 678.995 387.482 684.412 379.033 672.035V672.043ZM667.524 815.821C671.118 748.658 687.612 775.728 667.676 825.463L667.524 815.814V815.821ZM404.022 648.65C417.728 628.569 367.645 557.881 411.217 623.304C430.059 638.256 465.715 648.346 434.223 654.652C483.752 698.331 422.158 666.482 404.022 648.65ZM653.263 794.859C661.621 839.67 662.715 718.351 653.263 794.859ZM375.402 577.999C380.963 591.949 385.887 573.517 375.402 577.999ZM440.438 616.702C471.284 655.845 457.168 581.57 440.438 616.702ZM623.807 718.693C627.279 738.317 623.655 705.23 623.807 718.693ZM613.17 695.201C636.875 728.433 587.733 632.398 613.17 695.201ZM597.565 654.006C612.076 686.6 593.31 628.068 597.565 654.006ZM623.002 612.675C605.52 581.912 645.073 477.042 649.495 542.078C631.055 592.754 644.177 621.078 656.986 553.109C680.744 499.652 651.873 658.686 623.002 612.675ZM649.138 456.725C650.832 467.993 656.751 447.38 649.138 456.725ZM605.482 1316.86C606.811 1322.58 595.141 1307.82 605.482 1316.86ZM695.4 1362.32C745.423 1375.19 745.18 1354.56 699.958 1348.4C675.669 1325.81 598.91 1301.81 667.623 1345.62C672.151 1357.15 686.511 1356.85 695.4 1362.32ZM517.843 1244.37C545.361 1264.95 621.619 1302.6 557.085 1252.23C578.844 1226.93 515.449 1213.48 536.472 1196.54C482.962 1163.79 494.229 1166.72 531.754 1167.77C467.463 1139 541.038 1141.18 537.566 1126.44C512.775 1121.56 414.401 1082.7 472.279 1129.61C413.458 1099.65 458.262 1140.79 440.483 1136.47C380.31 1120.07 494.047 1182.28 430.941 1166.83C465.426 1194.15 523.799 1236.88 445.498 1195.73C435.218 1210.59 501.546 1233.1 517.835 1244.37H517.843ZM611.879 1298.42C555.785 1253.36 726.201 1335.24 611.879 1298.42ZM1093.3 1590.05C1077.69 1609.43 1094.79 1567.35 1093.3 1590.05ZM1142.78 1610.87C1169.16 1585.34 1143.87 1651.61 1186.5 1604.62C1186.94 1570.98 1185.21 1551.11 1137.52 1591.99C1124.34 1599.3 1118.49 1630.24 1142.78 1610.88V1610.87ZM357.319 1117.6C300.527 1085.89 349.213 1085.75 357.319 1117.6ZM410.123 1152.22C340.118 1122.76 390.498 1119.68 410.123 1152.22ZM710.747 1333.5C740.12 1359.59 845.537 1352.63 746.38 1336.74C731.717 1315.03 653.172 1320.24 710.747 1333.5ZM1123.95 1588.73C1080.18 1605.62 1169.11 1550.82 1123.95 1588.73ZM1217.9 1653.26C1198.43 1658.58 1218.19 1641.09 1217.9 1653.26ZM1218.05 1636.22C1169.61 1639.35 1268.07 1583.26 1218.05 1636.22ZM227.346 1008.79C184.723 947.975 200.868 920.646 159.735 870.965C151.924 832.961 89.1904 746.812 127.293 838.075C162.166 891.486 172.499 974.149 227.354 1008.79H227.346ZM1202.35 1619.37C1164.59 1593.49 1294.41 1559.9 1202.35 1619.37ZM1272.6 1646.89C1243.43 1638.64 1318.7 1607.34 1272.6 1646.89ZM341.661 1050.36C307.585 1047.83 354.835 1030.74 341.661 1050.36ZM1257.94 1628.11C1302.55 1599.35 1247.66 1603.77 1249.85 1630.74L1257.94 1628.11ZM652.42 1246.46C628.829 1248.1 650.885 1226.98 652.42 1246.46ZM689.831 1267.97C671.551 1271.75 677.91 1243.93 689.831 1267.97ZM1329.53 1647.54C1386.71 1606.3 1294.91 1639.64 1317.56 1655.39L1329.53 1647.54ZM1307.63 1636.96C1258.48 1654.25 1354.22 1597.95 1307.63 1636.96ZM1419.49 1711.43C1381.5 1704.67 1450.76 1690.51 1419.49 1711.43ZM370.334 1036.21C412.212 1045.59 537.802 1139.39 463.732 1042.72C425.782 1031.49 448.537 938.728 409.834 955.124C435.818 998.545 431.184 1016.97 376.633 989.656C308.132 956.165 338.135 1006.2 351.56 1020.02C333.265 1024.19 375.698 1035.86 370.327 1036.2L370.334 1036.21ZM179.405 885.431C186.904 854.372 110.297 714.719 143.24 815.426C155.108 836.54 153.877 876.526 179.405 885.431ZM529.855 1101.49C528.814 1098.9 508.247 1083.46 529.855 1101.49ZM582.962 1113.87C524.247 1100.5 582.962 1080.97 582.962 1113.87ZM1043.52 1404.15C1008.8 1403.65 1034.73 1381.69 1043.52 1404.15ZM1065.63 1420.29C1052.85 1422.73 1062.34 1407.72 1065.63 1420.29ZM1248.15 1535.3C1226.24 1533.63 1265.7 1522.34 1248.15 1535.3ZM274.748 909.774C220.934 895.908 324.968 890.339 274.748 909.774ZM1002.97 1368.52C970.929 1376.63 1002.38 1336.03 1002.97 1368.52ZM254.918 863.512C225.059 856.37 287.163 852.647 254.918 863.512ZM348.521 908.87C338.637 912.95 347.967 898.195 348.521 908.87ZM1490.45 1609.13C1531.93 1600.74 1626.48 1630.25 1641.73 1598.16C1591.35 1596.91 1467.5 1562.58 1461.63 1606.3L1472.66 1608.04L1490.46 1609.13H1490.45ZM378.274 916.376C352.594 915.138 379.033 883.433 378.274 916.376ZM132.17 745.619C89.6387 736.122 120.994 682.862 132.17 745.619ZM190.839 760.373C137.124 742.238 191.592 740.202 190.839 760.373ZM224.376 776.868C216.823 786.745 214.689 769.012 224.376 776.868ZM435.469 912.251C411.924 905.496 445.414 903.103 435.469 912.251ZM202.069 739.708C134.055 732.604 196.363 692.314 202.069 739.708ZM81.6839 661.604C69.9532 669.847 79.9897 639.745 81.6839 661.604ZM99.6144 648.103C84.214 651.37 96.6893 622.157 99.6144 648.103ZM198.498 707.114C240.331 690.718 122.324 673.13 189.951 704.037L198.498 707.114ZM1522.21 1524.77C1488.22 1517.18 1548.98 1500.23 1522.21 1524.77ZM1682.13 1607.64C1655.1 1611.82 1692.87 1575.95 1682.13 1607.64ZM208.603 655.298C175.424 661.406 213.032 624.603 208.603 655.298ZM67.8714 561.011C60.3193 517.689 61.3602 441.621 133.652 467.309C37.1617 486.486 200.473 587.276 179.853 507.691C220.44 509.689 259.249 483.705 237.93 523.091C317.918 514.301 373.32 444.949 450.565 454.689C510.724 446.697 576.504 440.679 641.343 416.435C694.648 412.606 745.962 355.221 716.764 321.191C644.078 315.037 567.957 324.124 487.627 340.124C398.605 358.602 317.728 393.771 227.893 408.883C140.3 420.659 245.482 441.272 220.387 445.891C174.725 461.74 274.892 472.422 214.476 489.16C177.171 482.064 138.317 469.246 154.264 429.898C70.4014 440.824 -3.32624 475.598 62.9557 560.95L67.879 560.996L67.8714 561.011ZM270.03 458.063C289.655 385.634 375.349 517.689 302.221 467.704C293.522 461.14 279.109 455.821 270.03 458.063ZM273.844 422.931C288.902 434.814 302.221 401.825 273.844 422.931ZM309.864 423.539C312.463 390.2 392.398 441.173 323.039 435.513L309.864 423.531V423.539ZM359.15 403.717C364.378 422.392 377.187 382.641 359.15 403.717ZM371.778 395.276C401.781 359.255 541.532 372.262 439.237 391.735C411.81 371.07 390.802 403.907 371.778 395.276ZM554.197 367.149C644.868 402.076 549.684 268.722 554.197 367.149ZM605.975 366.845C624.894 317.271 679.445 346.932 614.766 356.862C616.149 362.18 612.829 382.504 605.975 366.845ZM188.203 629.861C128.182 599.812 244.73 595.231 188.203 629.861ZM230.028 641.44C186.904 632.892 249.858 620.379 230.028 641.44ZM106.825 554.051C68.5704 544.615 139.115 529.207 106.825 554.051ZM1776.52 1598.6C1751.82 1611.56 1777.46 1569.78 1776.52 1598.6ZM1606.85 1482.79C1585.05 1485.68 1611.67 1449.66 1606.85 1482.79ZM1823.17 1609.78C1868.33 1609.94 1960.03 1595.71 1861.76 1595.77C1846.32 1598.16 1771.9 1597.67 1823.17 1609.78ZM266.801 621.108C303.368 618.624 323.981 580.81 259.689 582.953C160.084 572.673 347.572 617.089 246.925 604.371C233.417 613.313 265.995 623.593 266.801 621.108ZM298.992 637.413C287.656 649.873 295.163 613.959 298.992 637.413ZM337.193 535.559C315.236 530.294 353.042 515.881 337.193 535.559ZM215.57 332.321C280.857 310.167 370.083 285.224 400.892 343.262C369.536 305.555 388.227 268.387 417.835 323.584C459.713 379.381 480.667 298.2 453.445 279.465C484.504 318.015 519.772 336.257 474.209 281.911C523.746 222.338 375.098 289.706 341.319 289.007C325.075 296.301 173.494 327.657 215.577 332.321H215.57ZM253.824 259.103C291.045 231.037 382.551 275.841 323.829 231.174C318.07 226.114 195.261 265.059 253.824 259.103ZM389.511 264.71C433.03 265.804 370.737 206.185 422.598 233.21C414.104 205.395 362.189 200.175 336.806 189.052C322.446 214.489 366.003 265.059 389.511 264.71ZM277.62 141.544C251.195 151.93 292.678 121.129 277.62 141.544ZM333.083 154.802C403.27 145.518 315.183 124.602 318.906 154.065L333.075 154.802H333.083ZM229.527 73.8264C180.089 9.29194 322.484 84.6607 272.248 17.0871C229.975 -16.5401 189.388 54.9994 229.527 73.8264ZM863.703 415.394C886.375 375.241 770.161 361.238 848.455 401.171C855.657 403.565 854.031 418.167 863.703 415.394Z" fill="black"/>
</svg>
