<svg width="24" height="24" viewBox="0 0 24 24" fill="none" xmlns="http://www.w3.org/2000/svg">
<path d="M5.63604 18.364C7.99158 20.7195 11.328 21.4964 14.3306 20.6946V9.66943H3.30544C2.50361 12.672 3.28047 16.0084 5.63604 18.364Z" fill="#2B1212"/>
<path d="M5.63602 5.63599C4.47686 6.79515 3.7 8.19186 3.30542 9.66937L14.3305 20.6945C15.8081 20.3 17.2048 19.5231 18.3639 18.3639V15.2142L8.78571 5.63599H5.63602Z" fill="#FF5C00"/>
<path d="M5.65401 5.61799L5.63599 5.63602L18.3639 18.3639C19.523 17.2048 20.2999 15.8081 20.6945 14.3306V12.3214L11.6785 3.30542H9.66934C8.19945 3.69793 6.8096 4.46877 5.65401 5.61799Z" fill="white"/>
<path d="M20.6946 14.3306L9.66943 3.30545C12.6666 2.50505 15.9965 3.27769 18.3513 5.62332C18.3555 5.62756 18.3598 5.63176 18.364 5.636C18.3683 5.64025 18.3725 5.64449 18.3767 5.64874C20.7224 8.00361 21.495 11.3335 20.6946 14.3306Z" fill="#63BEFF"/>
</svg>
